<svg width="70" height="70" viewBox="0 0 70 70" fill="none" xmlns="http://www.w3.org/2000/svg">
<circle cx="35" cy="35" r="35" fill="#EEEEF0" fill-opacity="0.1"/>
<path d="M32.73 24L45 46L46.994 41.488C47.2216 41.0326 47.3297 40.5268 47.3082 40.0181C47.2867 39.5094 47.1363 39.0146 46.871 38.58L39.096 25.436C38.8278 24.9976 38.4516 24.6353 38.0034 24.3839C37.5552 24.1325 37.0499 24.0003 36.536 24H32.73ZM30.512 26.178L24.63 37H36.546L30.512 26.178ZM23 40L25.172 44.342C25.4209 44.8402 25.8037 45.2592 26.2774 45.5521C26.7511 45.8449 27.2971 46 27.854 46H41.566L38.221 40H23Z" fill="white"/>
</svg>
