<svg width="52" height="56" viewBox="0 0 52 56" fill="none" xmlns="http://www.w3.org/2000/svg">
<path d="M25.9967 38.6663C28.8257 38.6663 31.5388 37.5425 33.5392 35.5421C35.5396 33.5418 36.6634 30.8287 36.6634 27.9997C36.6634 25.1707 35.5396 22.4576 33.5392 20.4572C31.5388 18.4568 28.8257 17.333 25.9967 17.333C23.1678 17.333 20.4547 18.4568 18.4543 20.4572C16.4539 22.4576 15.3301 25.1707 15.3301 27.9997C15.3301 30.8287 16.4539 33.5418 18.4543 35.5421C20.4547 37.5425 23.1678 38.6663 25.9967 38.6663V38.6663Z" stroke="white" stroke-width="3" stroke-linecap="round" stroke-linejoin="round"/>
<path d="M3.40605 15.4506L16.398 22.6666M48.6647 15.4079L35.598 22.6666M25.998 51.9999V38.6666M49.998 15.6079V40.3919C49.9982 40.6776 49.9218 40.9581 49.7769 41.2043C49.632 41.4504 49.4239 41.6534 49.174 41.7919L26.774 54.2346C26.5366 54.3662 26.2696 54.4353 25.998 54.4353C25.7265 54.4353 25.4595 54.3662 25.222 54.2346L2.82205 41.7919C2.57223 41.6534 2.36406 41.4504 2.21915 41.2043C2.07425 40.9581 1.99791 40.6776 1.99805 40.3919V15.6079C1.99838 15.3227 2.07495 15.0427 2.21983 14.7971C2.36471 14.5514 2.57262 14.3489 2.82205 14.2106L25.222 1.76523C25.4595 1.63355 25.7265 1.56445 25.998 1.56445C26.2696 1.56445 26.5366 1.63355 26.774 1.76523L49.174 14.2106C49.4235 14.3489 49.6314 14.5514 49.7763 14.7971C49.9211 15.0427 49.9977 15.3227 49.998 15.6079V15.6079Z" stroke="white" stroke-width="3" stroke-linecap="round" stroke-linejoin="round"/>
</svg>
