<svg width="70" height="70" viewBox="0 0 70 70" fill="none" xmlns="http://www.w3.org/2000/svg">
<circle cx="35" cy="35" r="35" fill="#EEEEF0" fill-opacity="0.1"/>
<g clip-path="url(#clip0_34_1083)">
<path d="M48.3333 35.0003C48.3356 36.7565 47.9898 38.4958 47.3159 40.1176C46.642 41.7394 45.6535 43.2115 44.4073 44.449C43.1713 45.6828 41.7044 46.6609 40.0902 47.3275C38.476 47.994 36.7463 48.3359 35 48.3337C27.636 48.3337 21.6666 42.3643 21.6666 35.0003C21.662 31.5815 22.9752 28.2924 25.3333 25.817C26.5775 24.5041 28.0766 23.4588 29.7387 22.7453C31.4009 22.0317 33.1911 21.6648 35 21.667C36.7463 21.6647 38.476 22.0067 40.0902 22.6732C41.7044 23.3398 43.1713 24.3179 44.4073 25.5517C45.6535 26.7892 46.642 28.2613 47.3159 29.8831C47.9898 31.5049 48.3356 33.2441 48.3333 35.0003V35.0003Z" stroke="white" stroke-width="4" stroke-linecap="round" stroke-linejoin="round"/>
<path d="M48.3333 35.0004C46.388 35.0004 41.0213 34.267 36.218 36.3757C31 38.667 27.222 42.221 25.5753 44.4317" stroke="white" stroke-width="4" stroke-linecap="round" stroke-linejoin="round"/>
<path d="M30 22.6367C32.0867 24.5627 36.64 29.4661 38.3333 34.3341C40.0267 39.2021 40.6533 45.1874 41.04 46.8907" stroke="white" stroke-width="4" stroke-linecap="round" stroke-linejoin="round"/>
<path d="M21.7693 33.3335C24.288 33.4855 30.9553 33.6221 35.222 31.8001C39.4886 29.9781 43.16 26.6268 44.4193 25.5635M22.6666 40.0755C23.8415 42.9194 25.9604 45.2716 28.6666 46.7361" stroke="white" stroke-width="4" stroke-linecap="round" stroke-linejoin="round"/>
<path d="M21.6666 35.0003C21.662 31.5815 22.9752 28.2924 25.3333 25.817M35 21.667C33.1911 21.6648 31.4009 22.0317 29.7387 22.7453C28.0766 23.4588 26.5775 24.5041 25.3333 25.817M40.3333 22.7763C41.8517 23.4407 43.2332 24.3818 44.4073 25.5517C45.6535 26.7892 46.642 28.2613 47.3159 29.8831C47.9898 31.5049 48.3356 33.2441 48.3333 35.0003C48.3333 36.6417 48.0366 38.2143 47.4933 39.667M35 48.3337C36.7463 48.3359 38.476 47.994 40.0902 47.3275C41.7044 46.6609 43.1713 45.6828 44.4073 44.449" stroke="white" stroke-width="4" stroke-linecap="round" stroke-linejoin="round"/>
</g>
<defs>
<clipPath id="clip0_34_1083">
<rect width="32" height="32" fill="white" transform="translate(19 19)"/>
</clipPath>
</defs>
</svg>
