<svg width="22" height="20" viewBox="0 0 22 20" fill="none" xmlns="http://www.w3.org/2000/svg">
<path fill-rule="evenodd" clip-rule="evenodd" d="M15.6589 0.5C18.9889 0.5 21.4999 3.217 21.4999 6.82V13.688C21.4999 15.532 20.8479 17.198 19.6629 18.38C18.5999 19.439 17.2209 20 15.6749 20H5.82188C4.27888 20 2.90088 19.44 1.83688 18.38C0.651878 17.198 -0.00012207 15.532 -0.00012207 13.688V6.82C-0.00012207 3.217 2.51088 0.5 5.84088 0.5H15.6589ZM15.6589 2H5.84088C3.32588 2 1.49988 4.027 1.49988 6.82V13.688C1.49988 15.131 1.99588 16.42 2.89588 17.317C3.67188 18.092 4.68488 18.5 5.82488 18.5H15.6589C15.6609 18.498 15.6689 18.5 15.6749 18.5C16.8159 18.5 17.8279 18.092 18.6039 17.317C19.5049 16.42 19.9999 15.131 19.9999 13.688V6.82C19.9999 4.027 18.1739 2 15.6589 2ZM17.2349 6.6288C17.4959 6.9498 17.4469 7.4218 17.1259 7.6838L12.6819 11.2958C12.1199 11.7418 11.4479 11.9648 10.7769 11.9648C10.1079 11.9648 9.44088 11.7438 8.88288 11.3018L4.39788 7.6858C4.07488 7.4258 4.02488 6.9528 4.28388 6.6308C4.54488 6.3098 5.01688 6.2588 5.33888 6.5178L9.81988 10.1298C10.3829 10.5758 11.1759 10.5758 11.7429 10.1258L16.1789 6.5198C16.5009 6.2568 16.9729 6.3068 17.2349 6.6288Z" fill="white" fill-opacity="0.5"/>
</svg>
