<svg width="21" height="23" viewBox="0 0 21 23" fill="none" xmlns="http://www.w3.org/2000/svg">
<path fill-rule="evenodd" clip-rule="evenodd" d="M11.717 14.7913C12.921 14.7913 13.901 15.7643 13.901 16.9603V20.0363C13.901 20.2933 14.107 20.4993 14.371 20.5053H16.277C17.779 20.5053 19 19.2993 19 17.8173V9.09325C18.993 8.58325 18.75 8.10325 18.333 7.78425L11.74 2.52625C10.855 1.82525 9.617 1.82525 8.729 2.52825L2.181 7.78225C1.748 8.11125 1.505 8.59125 1.5 9.11025V17.8173C1.5 19.2993 2.721 20.5053 4.223 20.5053H6.147C6.418 20.5053 6.638 20.2903 6.638 20.0263C6.638 19.9683 6.645 19.9103 6.657 19.8553V16.9603C6.657 15.7713 7.631 14.7993 8.826 14.7913H11.717ZM16.277 22.0053H14.353C13.251 21.9793 12.401 21.1143 12.401 20.0363V16.9603C12.401 16.5913 12.094 16.2913 11.717 16.2913H8.831C8.462 16.2933 8.157 16.5943 8.157 16.9603V20.0263C8.157 20.1013 8.147 20.1733 8.126 20.2413C8.018 21.2313 7.172 22.0053 6.147 22.0053H4.223C1.894 22.0053 0 20.1263 0 17.8173V9.10325C0.01 8.10925 0.468 7.19925 1.259 6.60025L7.794 1.35525C9.233 0.21525 11.238 0.21525 12.674 1.35325L19.256 6.60325C20.029 7.19225 20.487 8.10025 20.5 9.08225V17.8173C20.5 20.1263 18.606 22.0053 16.277 22.0053Z" fill="white" fill-opacity="0.5"/>
</svg>
