<svg width="68" height="40" viewBox="0 0 68 40" fill="none" xmlns="http://www.w3.org/2000/svg">
<path d="M5.7593 18.1488C4.5811 18.1488 3.66333 17.8512 3.00602 17.2559C2.3487 16.6482 2.02005 15.749 2.02005 14.5584V5.77766H4.92215V14.5212C4.92215 14.9429 5.03377 15.2715 5.25701 15.5072C5.48025 15.7304 5.78411 15.842 6.16857 15.842C6.62745 15.842 7.01812 15.718 7.34058 15.47L8.12192 17.5163C7.82426 17.7272 7.4646 17.8884 7.04293 18C6.63366 18.0992 6.20578 18.1488 5.7593 18.1488ZM0.475975 10.4471V8.21468H7.41499V10.4471H0.475975ZM15.8901 18V16.0467L15.7041 15.6188V12.1214C15.7041 11.5013 15.5118 11.0176 15.1274 10.6703C14.7553 10.3231 14.1786 10.1494 13.3972 10.1494C12.864 10.1494 12.3369 10.2362 11.816 10.4099C11.3075 10.5711 10.8734 10.7943 10.5137 11.0796L9.47196 9.05183C10.0177 8.66736 10.675 8.36971 11.4439 8.15887C12.2128 7.94804 12.9942 7.84262 13.7879 7.84262C15.3134 7.84262 16.4978 8.20228 17.3411 8.92161C18.1845 9.64093 18.6062 10.7633 18.6062 12.2888V18H15.8901ZM12.8392 18.1488C12.0578 18.1488 11.3881 18.0186 10.83 17.7582C10.2719 17.4853 9.84403 17.1194 9.54637 16.6606C9.24872 16.2017 9.0999 15.687 9.0999 15.1165C9.0999 14.5212 9.24252 14.0003 9.52777 13.5538C9.82542 13.1073 10.2905 12.7601 10.923 12.512C11.5555 12.2516 12.3803 12.1214 13.3972 12.1214H16.0575V13.8143H13.7135C13.0314 13.8143 12.5601 13.9259 12.2997 14.1491C12.0516 14.3724 11.9276 14.6514 11.9276 14.9863C11.9276 15.3583 12.0702 15.656 12.3555 15.8792C12.6531 16.0901 13.0562 16.1955 13.5647 16.1955C14.0484 16.1955 14.4824 16.0839 14.8669 15.8606C15.2514 15.625 15.5304 15.2839 15.7041 14.8374L16.1505 16.1769C15.9397 16.8218 15.5552 17.3117 14.9971 17.6465C14.439 17.9814 13.7197 18.1488 12.8392 18.1488ZM21.2327 18V7.99144H24.1348V18H21.2327ZM22.6838 6.5962C22.1505 6.5962 21.7164 6.44117 21.3815 6.13112C21.0467 5.82106 20.8792 5.43659 20.8792 4.97771C20.8792 4.51883 21.0467 4.13437 21.3815 3.82431C21.7164 3.51426 22.1505 3.35923 22.6838 3.35923C23.2171 3.35923 23.6511 3.50806 23.986 3.80571C24.3209 4.09096 24.4883 4.46302 24.4883 4.92191C24.4883 5.40559 24.3209 5.80866 23.986 6.13112C23.6635 6.44117 23.2295 6.5962 22.6838 6.5962ZM30.1954 18.1488C29.3397 18.1488 28.5149 18.0496 27.7212 17.8512C26.9398 17.6403 26.3197 17.3799 25.8609 17.0698L26.8282 14.9863C27.2871 15.2715 27.8266 15.5072 28.4467 15.6932C29.0792 15.8668 29.6993 15.9536 30.307 15.9536C30.9768 15.9536 31.448 15.873 31.7209 15.7118C32.0061 15.5506 32.1488 15.3273 32.1488 15.0421C32.1488 14.8064 32.0371 14.6328 31.8139 14.5212C31.6031 14.3972 31.3178 14.3042 30.9581 14.2421C30.5985 14.1801 30.2016 14.1181 29.7675 14.0561C29.3459 13.9941 28.918 13.9135 28.4839 13.8143C28.0498 13.7026 27.653 13.5414 27.2933 13.3306C26.9336 13.1197 26.6422 12.8345 26.419 12.4748C26.2081 12.1152 26.1027 11.6501 26.1027 11.0796C26.1027 10.4471 26.2825 9.88898 26.6422 9.40529C27.0143 8.92161 27.5475 8.54334 28.2421 8.27049C28.9366 7.98524 29.7675 7.84262 30.7349 7.84262C31.417 7.84262 32.1116 7.91703 32.8185 8.06586C33.5254 8.21468 34.1145 8.43172 34.5858 8.71697L33.6184 10.7819C33.1347 10.4967 32.6448 10.3044 32.1488 10.2052C31.6651 10.0936 31.1938 10.0378 30.7349 10.0378C30.09 10.0378 29.6187 10.1246 29.3211 10.2982C29.0234 10.4719 28.8746 10.6951 28.8746 10.968C28.8746 11.216 28.98 11.402 29.1908 11.5261C29.4141 11.6501 29.7055 11.7493 30.0652 11.8237C30.4249 11.8981 30.8155 11.9663 31.2372 12.0284C31.6713 12.078 32.1053 12.1586 32.5394 12.2702C32.9735 12.3818 33.3642 12.543 33.7114 12.7539C34.0711 12.9523 34.3625 13.2314 34.5858 13.591C34.809 13.9383 34.9206 14.3972 34.9206 14.9677C34.9206 15.5878 34.7346 16.1397 34.3625 16.6234C33.9905 17.0946 33.451 17.4667 32.7441 17.7396C32.0495 18.0124 31.2 18.1488 30.1954 18.1488ZM41.6783 18.1488C40.5373 18.1488 39.5327 17.9256 38.6646 17.4791C37.8088 17.0326 37.1453 16.4249 36.674 15.656C36.2027 14.8747 35.9671 13.9879 35.9671 12.9957C35.9671 11.9911 36.1965 11.1044 36.6554 10.3355C37.1267 9.55412 37.7654 8.94641 38.5715 8.51233C39.3777 8.06586 40.2892 7.84262 41.3062 7.84262C42.286 7.84262 43.1665 8.05345 43.9479 8.47513C44.7416 8.8844 45.3679 9.4797 45.8268 10.261C46.2857 11.03 46.5151 11.9539 46.5151 13.0329C46.5151 13.1445 46.5089 13.2748 46.4965 13.4236C46.4841 13.56 46.4717 13.6902 46.4593 13.8143H38.3297V12.1214H44.9339L43.8177 12.6237C43.8177 12.1028 43.7122 11.6501 43.5014 11.2656C43.2906 10.8812 42.9991 10.5835 42.627 10.3727C42.255 10.1494 41.8209 10.0378 41.3248 10.0378C40.8287 10.0378 40.3885 10.1494 40.004 10.3727C39.6319 10.5835 39.3405 10.8874 39.1296 11.2842C38.9188 11.6687 38.8134 12.1276 38.8134 12.6609V13.1073C38.8134 13.653 38.9312 14.1367 39.1668 14.5584C39.4149 14.9677 39.7559 15.2839 40.19 15.5072C40.6365 15.718 41.1574 15.8234 41.7527 15.8234C42.286 15.8234 42.7511 15.7428 43.1479 15.5816C43.5572 15.4203 43.9293 15.1785 44.2641 14.856L45.8082 16.5303C45.3493 17.0512 44.7726 17.4543 44.0781 17.7396C43.3836 18.0124 42.5836 18.1488 41.6783 18.1488ZM53.4143 18.1488C52.2733 18.1488 51.2687 17.9256 50.4006 17.4791C49.5448 17.0326 48.8813 16.4249 48.41 15.656C47.9388 14.8747 47.7031 13.9879 47.7031 12.9957C47.7031 11.9911 47.9326 11.1044 48.3914 10.3355C48.8627 9.55412 49.5014 8.94641 50.3076 8.51233C51.1137 8.06586 52.0253 7.84262 53.0423 7.84262C54.022 7.84262 54.9026 8.05345 55.6839 8.47513C56.4777 8.8844 57.104 9.4797 57.5628 10.261C58.0217 11.03 58.2512 11.9539 58.2512 13.0329C58.2512 13.1445 58.245 13.2748 58.2326 13.4236C58.2202 13.56 58.2078 13.6902 58.1954 13.8143H50.0657V12.1214H56.6699L55.5537 12.6237C55.5537 12.1028 55.4483 11.6501 55.2374 11.2656C55.0266 10.8812 54.7352 10.5835 54.3631 10.3727C53.991 10.1494 53.5569 10.0378 53.0609 10.0378C52.5648 10.0378 52.1245 10.1494 51.74 10.3727C51.368 10.5835 51.0765 10.8874 50.8657 11.2842C50.6548 11.6687 50.5494 12.1276 50.5494 12.6609V13.1073C50.5494 13.653 50.6672 14.1367 50.9029 14.5584C51.1509 14.9677 51.492 15.2839 51.9261 15.5072C52.3725 15.718 52.8934 15.8234 53.4887 15.8234C54.022 15.8234 54.4871 15.7428 54.884 15.5816C55.2933 15.4203 55.6653 15.1785 56.0002 14.856L57.5442 16.5303C57.0854 17.0512 56.5087 17.4543 55.8141 17.7396C55.1196 18.0124 54.3197 18.1488 53.4143 18.1488ZM60.1833 18V7.99144H62.9552V10.8191L62.5645 10.0006C62.8622 9.29367 63.3396 8.76038 63.997 8.40072C64.6543 8.02865 65.4542 7.84262 66.3968 7.84262V10.5215C66.2728 10.5091 66.1611 10.5029 66.0619 10.5029C65.9627 10.4905 65.8573 10.4843 65.7457 10.4843C64.9519 10.4843 64.307 10.7137 63.8109 11.1726C63.3272 11.6191 63.0854 12.3198 63.0854 13.2748V18H60.1833Z" fill="white"/>
<path d="M0.651114 34.332V32.5833L6.56695 25.5885L7.06924 26.5559H0.781337V24.3235H9.41325V26.0722L3.49741 33.067L2.97652 32.0996H9.58068V34.332H0.651114ZM17.5795 34.332V32.3787L17.3935 31.9508V28.4534C17.3935 27.8333 17.2012 27.3496 16.8168 27.0023C16.4447 26.6551 15.868 26.4815 15.0867 26.4815C14.5534 26.4815 14.0263 26.5683 13.5054 26.7419C12.9969 26.9031 12.5628 27.1264 12.2032 27.4116L11.1614 25.3839C11.7071 24.9994 12.3644 24.7017 13.1333 24.4909C13.9023 24.2801 14.6836 24.1746 15.4773 24.1746C17.0028 24.1746 18.1872 24.5343 19.0306 25.2536C19.8739 25.973 20.2956 27.0954 20.2956 28.6208V34.332H17.5795ZM14.5286 34.4809C13.7472 34.4809 13.0775 34.3506 12.5194 34.0902C11.9613 33.8173 11.5334 33.4515 11.2358 32.9926C10.9381 32.5337 10.7893 32.019 10.7893 31.4485C10.7893 30.8532 10.9319 30.3323 11.2172 29.8859C11.5148 29.4394 11.9799 29.0921 12.6124 28.8441C13.2449 28.5836 14.0697 28.4534 15.0867 28.4534H17.7469V30.1463H15.4029C14.7208 30.1463 14.2495 30.2579 13.9891 30.4812C13.741 30.7044 13.617 30.9834 13.617 31.3183C13.617 31.6904 13.7596 31.988 14.0449 32.2113C14.3425 32.4221 14.7456 32.5275 15.2541 32.5275C15.7378 32.5275 16.1719 32.4159 16.5563 32.1927C16.9408 31.957 17.2198 31.616 17.3935 31.1695L17.8399 32.5089C17.6291 33.1538 17.2446 33.6437 16.6865 33.9786C16.1284 34.3134 15.4091 34.4809 14.5286 34.4809ZM22.9221 34.332V24.3235H25.694V27.1512L25.3033 26.3326C25.601 25.6257 26.0785 25.0924 26.7358 24.7327C27.3931 24.3607 28.1931 24.1746 29.1356 24.1746V26.8535C29.0116 26.8411 28.9 26.8349 28.8008 26.8349C28.7015 26.8225 28.5961 26.8163 28.4845 26.8163C27.6908 26.8163 27.0459 27.0458 26.5498 27.5046C26.0661 27.9511 25.8242 28.6518 25.8242 29.6068V34.332H22.9221ZM30.8794 34.332V24.3235H33.6513V27.1512L33.2606 26.3326C33.5583 25.6257 34.0357 25.0924 34.6931 24.7327C35.3504 24.3607 36.1503 24.1746 37.0929 24.1746V26.8535C36.9689 26.8411 36.8572 26.8349 36.758 26.8349C36.6588 26.8225 36.5534 26.8163 36.4418 26.8163C35.648 26.8163 35.0031 27.0458 34.507 27.5046C34.0233 27.9511 33.7815 28.6518 33.7815 29.6068V34.332H30.8794ZM43.1141 34.4809C42.2831 34.4809 41.539 34.3196 40.8817 33.9972C40.2368 33.6747 39.7345 33.1848 39.3748 32.5275C39.0152 31.8578 38.8353 31.0082 38.8353 29.9789V24.3235H41.7374V29.551C41.7374 30.3819 41.9111 30.9958 42.2583 31.3927C42.618 31.7772 43.1203 31.9694 43.7652 31.9694C44.2117 31.9694 44.6085 31.8764 44.9558 31.6904C45.3031 31.4919 45.5759 31.1943 45.7743 30.7974C45.9728 30.3881 46.072 29.8796 46.072 29.2719V24.3235H48.9741V34.332H46.2208V31.5787L46.7231 32.3787C46.3883 33.0732 45.8922 33.6003 45.2349 33.96C44.5899 34.3072 43.883 34.4809 43.1141 34.4809ZM54.0625 32.2857L54.1369 28.7511L58.8064 24.3235H62.2666L57.7832 28.8813L56.2763 30.1091L54.0625 32.2857ZM51.6627 34.332V20.5284H54.5648V34.332H51.6627ZM59.1226 34.332L55.7368 30.1277L57.56 27.8767L62.6386 34.332H59.1226Z" fill="white"/>
<path d="M65.0414 34.4809C64.5453 34.4809 64.1174 34.3134 63.7577 33.9786C63.4105 33.6313 63.2369 33.191 63.2369 32.6577C63.2369 32.1244 63.4105 31.6966 63.7577 31.3741C64.1174 31.0393 64.5453 30.8718 65.0414 30.8718C65.5499 30.8718 65.9777 31.0393 66.325 31.3741C66.6723 31.6966 66.8459 32.1244 66.8459 32.6577C66.8459 33.191 66.6723 33.6313 66.325 33.9786C65.9777 34.3134 65.5499 34.4809 65.0414 34.4809Z" fill="#7EFFBD"/>
</svg>
