<svg width="24" height="17" viewBox="0 0 24 17" fill="none" xmlns="http://www.w3.org/2000/svg">
<path d="M1.33333 16.666C0.955556 16.666 0.639111 16.538 0.384 16.282C0.128 16.0269 0 15.7105 0 15.3327C0 14.9549 0.128 14.6385 0.384 14.3833C0.639111 14.1273 0.955556 13.9993 1.33333 13.9993H22.6667C23.0444 13.9993 23.3609 14.1273 23.616 14.3833C23.872 14.6385 24 14.9549 24 15.3327C24 15.7105 23.872 16.0269 23.616 16.282C23.3609 16.538 23.0444 16.666 22.6667 16.666H1.33333ZM1.33333 9.99935C0.955556 9.99935 0.639111 9.87135 0.384 9.61535C0.128 9.36024 0 9.04379 0 8.66602C0 8.28824 0.128 7.97135 0.384 7.71535C0.639111 7.46024 0.955556 7.33268 1.33333 7.33268H22.6667C23.0444 7.33268 23.3609 7.46024 23.616 7.71535C23.872 7.97135 24 8.28824 24 8.66602C24 9.04379 23.872 9.36024 23.616 9.61535C23.3609 9.87135 23.0444 9.99935 22.6667 9.99935H1.33333ZM1.33333 3.33268C0.955556 3.33268 0.639111 3.20513 0.384 2.95002C0.128 2.69402 0 2.37713 0 1.99935C0 1.62157 0.128 1.30468 0.384 1.04868C0.639111 0.793571 0.955556 0.666016 1.33333 0.666016H22.6667C23.0444 0.666016 23.3609 0.793571 23.616 1.04868C23.872 1.30468 24 1.62157 24 1.99935C24 2.37713 23.872 2.69402 23.616 2.95002C23.3609 3.20513 23.0444 3.33268 22.6667 3.33268H1.33333Z" fill="white"/>
</svg>
