<svg width="21" height="21" viewBox="0 0 21 21" fill="none" xmlns="http://www.w3.org/2000/svg">
<path fill-rule="evenodd" clip-rule="evenodd" d="M2.35953 3.56033C2.36153 3.56033 2.31153 3.61233 2.24853 3.67433C2.00653 3.90933 1.50553 4.39833 1.50048 5.42133C1.49253 6.85233 2.43353 9.50933 6.96453 14.0393C11.4745 18.5473 14.1275 19.4993 15.5615 19.4993H15.5825C16.6055 19.4943 17.0935 18.9923 17.3295 18.7513C17.4015 18.6773 17.4595 18.6233 17.5005 18.5893C18.4965 17.5873 19.0065 16.8413 19.0016 16.3633C18.9945 15.8753 18.3875 15.2983 17.5485 14.5003C17.2815 14.2463 16.9915 13.9703 16.6855 13.6643C15.8925 12.8733 15.4995 13.0083 14.6355 13.3123C13.4405 13.7313 11.8005 14.3013 9.25253 11.7523C6.70053 9.20233 7.27153 7.56433 7.68953 6.36933C7.99153 5.50533 8.12953 5.11133 7.33553 4.31733C7.02453 4.00733 6.74553 3.71333 6.48853 3.44333C5.69553 2.60933 5.12353 2.00633 4.63853 1.99933H4.63053C4.15153 1.99933 3.40753 2.51133 2.35453 3.56433C2.35753 3.56133 2.35853 3.56033 2.35953 3.56033ZM15.5625 20.9993C13.0705 20.9993 9.82153 19.0153 5.90453 15.1003C1.97253 11.1693 -0.0144661 7.91033 0.000449563 5.41333C0.00953386 3.76333 0.874534 2.91833 1.19953 2.60133C1.21653 2.58033 1.27453 2.52333 1.29453 2.50333C2.72853 1.06833 3.69553 0.488326 4.65753 0.499173C5.77453 0.514326 6.56953 1.35033 7.57553 2.40933C7.82453 2.67133 8.09453 2.95633 8.39553 3.25633C9.85553 4.71633 9.43953 5.90733 9.10553 6.86333C8.74153 7.90633 8.42653 8.80633 10.3125 10.6923C12.2005 12.5783 13.1005 12.2633 14.1395 11.8963C15.0965 11.5623 16.2845 11.1443 17.7465 12.6043C18.0425 12.9003 18.3235 13.1673 18.5825 13.4143C19.6465 14.4253 20.4865 15.2243 20.5007 16.3443C20.5125 17.2993 19.9325 18.2723 18.5005 19.7053L17.8665 19.2753L18.4025 19.7993C18.0855 20.1243 17.2415 20.9903 15.5905 20.9993H15.5625Z" fill="white" fill-opacity="0.5"/>
</svg>
