<svg width="70" height="70" viewBox="0 0 70 70" fill="none" xmlns="http://www.w3.org/2000/svg">
<circle cx="35" cy="35" r="35" fill="#EEEEF0" fill-opacity="0.1"/>
<path d="M30.92 43.9403C32.6091 43.9509 34.2836 43.6261 35.8462 42.9846C37.4088 42.3431 38.8285 41.3977 40.0229 40.2032C41.2174 39.0088 42.1627 37.5891 42.8043 36.0265C43.4458 34.4639 43.7706 32.7895 43.76 31.1003V30.5103C44.6356 29.8688 45.3935 29.0805 46 28.1803C45.1755 28.5409 44.3031 28.7801 43.41 28.8903C44.3569 28.3261 45.0674 27.438 45.41 26.3903C44.5275 26.9198 43.5598 27.2919 42.55 27.4903C41.8699 26.7657 40.97 26.2854 39.9895 26.1237C39.0089 25.962 38.0024 26.128 37.1257 26.596C36.249 27.0639 35.551 27.8078 35.1396 28.7124C34.7282 29.617 34.6264 30.632 34.85 31.6003C33.056 31.5123 31.3007 31.0473 29.6984 30.2358C28.096 29.4243 26.6825 28.2844 25.55 26.8903C24.9789 27.8815 24.8058 29.0526 25.0658 30.1666C25.3257 31.2806 25.9992 32.2542 26.95 32.8903C26.2486 32.8633 25.5635 32.6714 24.95 32.3303V32.3803C24.9438 33.4161 25.2927 34.4228 25.9387 35.2326C26.5847 36.0423 27.4887 36.6062 28.5 36.8303C27.8476 37.0058 27.1643 37.0331 26.5 36.9103C26.7928 37.7937 27.3517 38.5649 28.1 39.1181C28.8484 39.6713 29.7496 39.9795 30.68 40.0003C29.0892 41.2808 27.1121 41.9857 25.07 42.0003C24.712 41.9899 24.3547 41.9599 24 41.9103C26.067 43.2272 28.4692 43.9215 30.92 43.9103" fill="white"/>
</svg>
